<mxfile><diagram id="1HdudL4GVZwM5hWDRPM_" name="Page-1"><mxGraphModel dx="1314" dy="692" grid="1" gridSize="10" guides="1" tooltips="1" connect="1" arrows="1" fold="1" page="1" pageScale="1" pageWidth="827" pageHeight="1169" math="0" shadow="0"><root><mxCell id="0"/><mxCell id="1" parent="0"/><mxCell id="2" value="" style="pointerEvents=1;verticalLabelPosition=bottom;shadow=0;dashed=0;align=center;html=1;verticalAlign=top;shape=mxgraph.electrical.miscellaneous.batteryStack;" vertex="1" parent="1"><mxGeometry x="340" y="130" width="100" height="60" as="geometry"/></mxCell><mxCell id="3" value="" style="pointerEvents=1;verticalLabelPosition=bottom;shadow=0;dashed=0;align=center;html=1;verticalAlign=top;shape=mxgraph.electrical.resistors.resistor_2;" vertex="1" parent="1"><mxGeometry x="20" y="410" width="100" height="20" as="geometry"/></mxCell><mxCell id="4" value="" style="verticalLabelPosition=bottom;shadow=0;dashed=0;align=center;html=1;verticalAlign=top;shape=mxgraph.electrical.opto_electronics.led_2;pointerEvents=1;direction=west;" vertex="1" parent="1"><mxGeometry x="210" y="390" width="100" height="70" as="geometry"/></mxCell><mxCell id="5" value="" style="verticalLabelPosition=bottom;shadow=0;dashed=0;align=center;html=1;verticalAlign=top;shape=mxgraph.electrical.opto_electronics.led_2;pointerEvents=1;direction=west;" vertex="1" parent="1"><mxGeometry x="610" y="390" width="100" height="70" as="geometry"/></mxCell><mxCell id="6" value="" style="verticalLabelPosition=bottom;shadow=0;dashed=0;align=center;html=1;verticalAlign=top;shape=mxgraph.electrical.opto_electronics.led_2;pointerEvents=1;direction=west;" vertex="1" parent="1"><mxGeometry x="400" y="390" width="100" height="70" as="geometry"/></mxCell><mxCell id="8" value="" style="endArrow=none;html=1;exitX=1;exitY=0.5;exitDx=0;exitDy=0;exitPerimeter=0;entryX=1;entryY=0.57;entryDx=0;entryDy=0;entryPerimeter=0;" edge="1" parent="1" source="3" target="4"><mxGeometry width="50" height="50" relative="1" as="geometry"><mxPoint x="230" y="345" as="sourcePoint"/><mxPoint x="280" y="295" as="targetPoint"/><Array as="points"/></mxGeometry></mxCell><mxCell id="9" value="" style="endArrow=none;html=1;entryX=1;entryY=0.57;entryDx=0;entryDy=0;entryPerimeter=0;exitX=0;exitY=0.57;exitDx=0;exitDy=0;exitPerimeter=0;" edge="1" parent="1" source="4" target="6"><mxGeometry width="50" height="50" relative="1" as="geometry"><mxPoint x="390" y="380" as="sourcePoint"/><mxPoint x="440" y="330" as="targetPoint"/><Array as="points"/></mxGeometry></mxCell><mxCell id="11" value="" style="endArrow=none;html=1;exitX=0;exitY=0.57;exitDx=0;exitDy=0;exitPerimeter=0;entryX=1;entryY=0.57;entryDx=0;entryDy=0;entryPerimeter=0;" edge="1" parent="1" source="6" target="5"><mxGeometry width="50" height="50" relative="1" as="geometry"><mxPoint x="580" y="390" as="sourcePoint"/><mxPoint x="630" y="340" as="targetPoint"/></mxGeometry></mxCell><mxCell id="12" value="" style="endArrow=none;html=1;entryX=0;entryY=0.5;entryDx=0;entryDy=0;exitX=0;exitY=0.5;exitDx=0;exitDy=0;exitPerimeter=0;" edge="1" parent="1" source="3" target="2"><mxGeometry width="50" height="50" relative="1" as="geometry"><mxPoint x="145" y="270" as="sourcePoint"/><mxPoint x="200" y="220" as="targetPoint"/></mxGeometry></mxCell><mxCell id="14" value="" style="endArrow=none;html=1;exitX=1;exitY=0.5;exitDx=0;exitDy=0;entryX=0;entryY=0.57;entryDx=0;entryDy=0;entryPerimeter=0;" edge="1" parent="1" source="2" target="5"><mxGeometry width="50" height="50" relative="1" as="geometry"><mxPoint x="490" y="185" as="sourcePoint"/><mxPoint x="540" y="135" as="targetPoint"/><Array as="points"><mxPoint x="650" y="370"/></Array></mxGeometry></mxCell><mxCell id="15" value="Red" style="text;html=1;align=center;verticalAlign=middle;resizable=0;points=[];autosize=1;strokeColor=none;fillColor=none;" vertex="1" parent="1"><mxGeometry x="250" y="370" width="40" height="20" as="geometry"/></mxCell><mxCell id="16" value="Green" style="text;html=1;align=center;verticalAlign=middle;resizable=0;points=[];autosize=1;strokeColor=none;fillColor=none;" vertex="1" parent="1"><mxGeometry x="445" y="360" width="50" height="20" as="geometry"/></mxCell><mxCell id="17" value="Blue" style="text;html=1;align=center;verticalAlign=middle;resizable=0;points=[];autosize=1;strokeColor=none;fillColor=none;" vertex="1" parent="1"><mxGeometry x="650" y="460" width="40" height="20" as="geometry"/></mxCell><mxCell id="18" value="+" style="text;html=1;align=center;verticalAlign=middle;resizable=0;points=[];autosize=1;strokeColor=none;fillColor=none;" vertex="1" parent="1"><mxGeometry x="430" y="100" width="20" height="20" as="geometry"/></mxCell><mxCell id="19" value="_" style="text;html=1;align=center;verticalAlign=middle;resizable=0;points=[];autosize=1;strokeColor=none;fillColor=none;" vertex="1" parent="1"><mxGeometry x="330" y="100" width="20" height="20" as="geometry"/></mxCell><mxCell id="20" value="&lt;br&gt;+" style="text;html=1;align=center;verticalAlign=middle;resizable=0;points=[];autosize=1;strokeColor=none;fillColor=none;" vertex="1" parent="1"><mxGeometry x="210" y="365" width="20" height="30" as="geometry"/></mxCell><mxCell id="21" value="_" style="text;html=1;align=center;verticalAlign=middle;resizable=0;points=[];autosize=1;strokeColor=none;fillColor=none;" vertex="1" parent="1"><mxGeometry x="300" y="380" width="20" height="20" as="geometry"/></mxCell><mxCell id="22" value="+" style="text;html=1;align=center;verticalAlign=middle;resizable=0;points=[];autosize=1;strokeColor=none;fillColor=none;" vertex="1" parent="1"><mxGeometry x="400" y="360" width="20" height="20" as="geometry"/></mxCell><mxCell id="23" value="_" style="text;html=1;align=center;verticalAlign=middle;resizable=0;points=[];autosize=1;strokeColor=none;fillColor=none;" vertex="1" parent="1"><mxGeometry x="510" y="360" width="20" height="20" as="geometry"/></mxCell><mxCell id="24" value="+" style="text;html=1;align=center;verticalAlign=middle;resizable=0;points=[];autosize=1;strokeColor=none;fillColor=none;" vertex="1" parent="1"><mxGeometry x="610" y="365" width="20" height="20" as="geometry"/></mxCell><mxCell id="25" value="_" style="text;html=1;align=center;verticalAlign=middle;resizable=0;points=[];autosize=1;strokeColor=none;fillColor=none;" vertex="1" parent="1"><mxGeometry x="690" y="365" width="20" height="20" as="geometry"/></mxCell></root></mxGraphModel></diagram></mxfile>